<svg width="564" height="445" viewBox="0 0 564 445" fill="none" xmlns="http://www.w3.org/2000/svg">
<g clip-path="url(#clip0_795_4544)">
<g opacity="0.66">
<path d="M112.299 183.947H122.03C123.992 183.947 125.875 183.167 127.263 181.779C128.65 180.39 129.43 178.508 129.43 176.544V165.602C129.441 164.598 129.755 163.62 130.331 162.797C130.906 161.975 131.717 161.345 132.657 160.991C133.803 160.567 134.949 160.094 136.058 159.583C136.977 159.154 138.005 159.017 139.005 159.188C140.005 159.36 140.928 159.832 141.652 160.542L149.389 168.282C150.075 168.97 150.891 169.516 151.789 169.888C152.687 170.26 153.649 170.451 154.621 170.45C155.595 170.452 156.56 170.261 157.46 169.889C158.36 169.517 159.178 168.97 159.867 168.282L166.731 161.402C168.105 160.004 168.874 158.122 168.874 156.162C168.874 154.201 168.105 152.32 166.731 150.921L158.994 143.182C158.286 142.456 157.816 141.532 157.647 140.532C157.478 139.532 157.618 138.505 158.048 137.586C158.558 136.477 159.032 135.331 159.455 134.184C159.809 133.244 160.439 132.433 161.261 131.857C162.084 131.281 163.061 130.967 164.065 130.956H175.004C176.967 130.956 178.849 130.176 180.237 128.788C181.625 127.4 182.404 125.517 182.404 123.553V113.82C182.385 111.863 181.599 109.991 180.215 108.607C178.832 107.223 176.961 106.437 175.004 106.417H164.065C163.059 106.417 162.077 106.107 161.252 105.53C160.428 104.953 159.8 104.136 159.455 103.19C159.032 102.043 158.558 100.909 158.048 99.7874C157.618 98.8691 157.478 97.8414 157.647 96.8416C157.816 95.8418 158.286 94.9174 158.994 94.1917L166.731 86.4525C168.119 85.0642 168.899 83.1814 168.899 81.2182C168.899 79.255 168.119 77.3722 166.731 75.984L159.867 69.1046C158.469 67.7308 156.587 66.961 154.628 66.961C152.668 66.961 150.787 67.7308 149.389 69.1046L141.652 76.8439C140.928 77.5542 140.005 78.0266 139.005 78.1981C138.005 78.3696 136.977 78.2319 136.058 77.8035C134.949 77.2801 133.803 76.8065 132.657 76.3952C131.715 76.0405 130.903 75.4089 130.327 74.5837C129.751 73.7584 129.438 72.7781 129.43 71.7716V60.8295C129.411 58.8722 128.625 57.0006 127.241 55.6165C125.857 54.2324 123.986 53.4462 122.03 53.4268H112.299C110.343 53.4462 108.472 54.2324 107.088 55.6165C105.704 57.0006 104.918 58.8722 104.899 60.8295V71.7716C104.891 72.7781 104.578 73.7584 104.002 74.5837C103.426 75.4089 102.614 76.0405 101.672 76.3952C100.538 76.8065 99.3923 77.2801 98.271 77.8035C97.3517 78.2319 96.3237 78.3696 95.3241 78.1981C94.3246 78.0266 93.4011 77.5542 92.6771 76.8439L84.9402 69.1046C83.5524 67.7165 81.6702 66.9367 79.7076 66.9367C77.745 66.9367 75.8628 67.7165 74.475 69.1046L67.5978 75.984C66.2101 77.3722 65.4305 79.255 65.4305 81.2182C65.4305 83.1814 66.2101 85.0642 67.5978 86.4525L75.3346 94.1917C76.0447 94.916 76.517 95.8398 76.6884 96.8396C76.8598 97.8395 76.7222 98.8679 76.2939 99.7874C75.7707 100.909 75.2972 102.043 74.8861 103.19C74.5315 104.132 73.9001 104.944 73.0751 105.52C72.2501 106.096 71.2701 106.409 70.2639 106.417H59.3252C57.3685 106.437 55.4975 107.223 54.1138 108.607C52.7302 109.991 51.9443 111.863 51.9248 113.82V123.553C51.9248 125.517 52.7045 127.4 54.0923 128.788C55.4802 130.176 57.3625 130.956 59.3252 130.956H70.2639C71.2701 130.965 72.2501 131.277 73.0751 131.854C73.9001 132.43 74.5315 133.242 74.8861 134.184C75.2972 135.331 75.7707 136.477 76.2815 137.586C76.7113 138.505 76.851 139.532 76.6818 140.532C76.5126 141.532 76.0426 142.456 75.3346 143.182L67.5978 150.921C66.2244 152.32 65.4548 154.201 65.4548 156.162C65.4548 158.122 66.2244 160.004 67.5978 161.402L74.475 168.282C75.1604 168.971 75.9759 169.518 76.8741 169.89C77.7723 170.262 78.7354 170.453 79.7076 170.45C80.6798 170.453 81.6429 170.262 82.5411 169.89C83.4393 169.518 84.2547 168.971 84.9402 168.282L92.6771 160.542C93.4011 159.832 94.3246 159.36 95.3241 159.188C96.3237 159.017 97.3517 159.154 98.271 159.583C99.3798 160.094 100.526 160.567 101.672 160.991C102.612 161.345 103.423 161.975 103.998 162.797C104.574 163.62 104.888 164.598 104.899 165.602V176.544C104.918 178.502 105.704 180.373 107.088 181.757C108.472 183.141 110.343 183.927 112.299 183.947ZM138.176 156.617C137.083 156.62 136.004 156.858 135.012 157.314C133.965 157.801 132.881 158.249 131.797 158.648C130.378 159.178 129.154 160.127 128.286 161.369C127.419 162.611 126.949 164.087 126.938 165.602V176.544C126.938 177.846 126.421 179.095 125.501 180.016C124.58 180.937 123.332 181.454 122.03 181.454H112.299C110.998 181.454 109.749 180.937 108.828 180.016C107.908 179.095 107.391 177.846 107.391 176.544V165.602C107.38 164.087 106.91 162.611 106.043 161.369C105.175 160.127 103.951 159.178 102.532 158.648C101.448 158.249 100.364 157.801 99.3175 157.314C97.936 156.673 96.3916 156.469 94.8909 156.729C93.3902 156.99 92.0048 157.703 90.9204 158.773L83.1836 166.512C82.2531 167.418 81.006 167.925 79.7076 167.925C78.4092 167.925 77.162 167.418 76.2316 166.512L69.3544 159.633C68.4346 158.712 67.918 157.463 67.918 156.162C67.918 154.86 68.4346 153.612 69.3544 152.691L77.0913 144.952C78.1634 143.866 78.8777 142.478 79.1383 140.974C79.3989 139.47 79.1932 137.923 78.5489 136.539C78.0631 135.493 77.6145 134.408 77.2159 133.324C76.6858 131.905 75.7372 130.68 74.4957 129.812C73.2543 128.944 71.7785 128.474 70.2639 128.464H59.3252C58.0294 128.444 56.792 127.921 55.8756 127.004C54.9592 126.088 54.4358 124.85 54.4165 123.553V113.82C54.4358 112.524 54.9592 111.286 55.8756 110.37C56.792 109.453 58.0294 108.929 59.3252 108.91H70.2639C71.7785 108.9 73.2543 108.43 74.4957 107.562C75.7372 106.694 76.6858 105.469 77.2159 104.05C77.6145 102.965 78.0631 101.894 78.5489 100.834C79.1765 99.4599 79.3731 97.9277 79.1129 96.4394C78.8527 94.9511 78.1479 93.5765 77.0913 92.4968L69.3544 84.7576C68.4488 83.8269 67.9421 82.5793 67.9421 81.2805C67.9421 79.9817 68.4488 78.7342 69.3544 77.8035L76.2316 70.9242C77.162 70.0182 78.4092 69.5113 79.7076 69.5113C81.006 69.5113 82.2531 70.0182 83.1836 70.9242L90.9204 78.6634C92.0048 79.7333 93.3902 80.4462 94.8909 80.7068C96.3916 80.9674 97.936 80.7632 99.3175 80.1215C100.377 79.6355 101.448 79.1868 102.532 78.788C103.951 78.2578 105.175 77.3089 106.043 76.067C106.91 74.8252 107.38 73.349 107.391 71.8339V60.8918C107.41 59.5956 107.933 58.3578 108.85 57.4411C109.766 56.5244 111.004 56.0009 112.299 55.9816H122.03C123.326 56.0009 124.563 56.5244 125.479 57.4411C126.396 58.3578 126.919 59.5956 126.938 60.8918V71.8339C126.949 73.349 127.419 74.8252 128.286 76.067C129.154 77.3089 130.378 78.2578 131.797 78.788C132.881 79.1868 133.953 79.6355 135.012 80.1215C136.393 80.7632 137.938 80.9674 139.438 80.7068C140.939 80.4462 142.324 79.7333 143.409 78.6634L151.146 70.9242C152.076 70.0182 153.323 69.5113 154.621 69.5113C155.92 69.5113 157.167 70.0182 158.097 70.9242L164.975 77.8035C165.88 78.7342 166.387 79.9817 166.387 81.2805C166.387 82.5793 165.88 83.8269 164.975 84.7576L157.238 92.4968C156.168 93.5816 155.456 94.9674 155.195 96.4685C154.935 97.9697 155.139 99.5147 155.78 100.897C156.266 101.956 156.715 103.028 157.113 104.112C157.643 105.531 158.592 106.756 159.833 107.624C161.075 108.492 162.551 108.962 164.065 108.972H175.004C176.3 108.992 177.537 109.515 178.453 110.432C179.37 111.349 179.893 112.586 179.913 113.883V123.616C179.893 124.912 179.37 126.15 178.453 127.067C177.537 127.983 176.3 128.507 175.004 128.526H164.065C162.551 128.536 161.075 129.007 159.833 129.874C158.592 130.742 157.643 131.967 157.113 133.386C156.715 134.471 156.266 135.555 155.78 136.602C155.136 137.985 154.93 139.533 155.191 141.036C155.451 142.54 156.166 143.928 157.238 145.014L164.975 152.753C165.894 153.674 166.411 154.922 166.411 156.224C166.411 157.526 165.894 158.774 164.975 159.695L158.097 166.574C157.167 167.48 155.92 167.987 154.621 167.987C153.323 167.987 152.076 167.48 151.146 166.574L143.409 158.835C142.727 158.137 141.913 157.582 141.015 157.201C140.116 156.821 139.152 156.622 138.176 156.617ZM117.171 152.878C126.237 152.865 134.928 149.256 141.339 142.843C147.749 136.431 151.357 127.737 151.37 118.668C151.353 109.609 147.749 100.925 141.347 94.5185C134.944 88.1115 126.264 84.5032 117.208 84.4834C108.139 84.4834 99.4401 88.083 93.0214 94.4921C86.6026 100.901 82.9883 109.596 82.9718 118.668C82.9751 127.749 86.5836 136.457 93.0038 142.876C99.424 149.296 108.13 152.903 117.208 152.903L117.171 152.878ZM117.171 86.951C125.577 86.9609 133.636 90.3057 139.58 96.2517C145.524 102.198 148.868 110.259 148.878 118.668C148.875 127.075 145.539 135.137 139.602 141.088C133.666 147.038 125.612 150.39 117.208 150.41C108.791 150.41 100.719 147.066 94.7657 141.114C88.8128 135.162 85.4668 127.088 85.4635 118.668C85.4767 110.256 88.8274 102.193 94.7796 96.2509C100.732 90.3086 108.799 86.9726 117.208 86.9759L117.171 86.951Z" fill="#DADEF1"/>
<g opacity="0.84">
<path d="M130.415 361.775H142.537C143.938 361.775 145.304 361.345 146.452 360.543C147.6 359.74 148.473 358.604 148.954 357.288C149.415 356.042 149.925 354.796 150.474 353.624C151.075 352.349 151.269 350.921 151.031 349.532C150.792 348.143 150.132 346.861 149.141 345.86L140.557 337.286C139.275 336.003 138.556 334.264 138.556 332.45C138.556 330.637 139.275 328.898 140.557 327.615L148.181 319.988C148.815 319.353 149.568 318.85 150.396 318.507C151.225 318.164 152.112 317.987 153.009 317.987C153.906 317.987 154.793 318.164 155.622 318.507C156.45 318.85 157.203 319.353 157.837 319.988L166.421 328.574C167.42 329.568 168.702 330.229 170.091 330.468C171.48 330.707 172.909 330.511 174.182 329.908C175.428 329.359 176.599 328.849 177.845 328.387C179.16 327.909 180.295 327.038 181.097 325.892C181.9 324.746 182.33 323.381 182.33 321.982V309.843C182.33 308.032 183.05 306.295 184.33 305.014C185.61 303.733 187.347 303.014 189.158 303.014H199.947C201.758 303.014 203.494 303.733 204.775 305.014C206.055 306.295 206.774 308.032 206.774 309.843V321.982C206.774 323.381 207.205 324.746 208.007 325.892C208.81 327.038 209.945 327.909 211.259 328.387C212.505 328.849 213.751 329.359 214.922 329.908C216.196 330.511 217.625 330.707 219.014 330.468C220.403 330.229 221.684 329.568 222.684 328.574L231.268 319.988C231.902 319.353 232.655 318.85 233.483 318.507C234.311 318.164 235.199 317.987 236.096 317.987C236.992 317.987 237.88 318.164 238.709 318.507C239.537 318.85 240.289 319.353 240.923 319.988L248.548 327.615C249.829 328.898 250.549 330.637 250.549 332.45C250.549 334.264 249.829 336.003 248.548 337.286L239.977 345.86C238.986 346.861 238.326 348.142 238.085 349.531C237.845 350.919 238.035 352.347 238.631 353.624C239.192 354.87 239.69 356.042 240.151 357.288C240.633 358.603 241.507 359.738 242.654 360.54C243.801 361.343 245.167 361.773 246.567 361.775H258.702C260.514 361.778 262.25 362.5 263.53 363.783C264.81 365.066 265.529 366.804 265.529 368.616V379.397C265.529 380.293 265.353 381.182 265.01 382.01C264.667 382.839 264.164 383.592 263.53 384.226C262.896 384.86 262.143 385.363 261.315 385.706C260.486 386.049 259.599 386.226 258.702 386.226H246.567C245.167 386.227 243.801 386.658 242.654 387.46C241.507 388.263 240.633 389.398 240.151 390.713C239.69 391.959 239.192 393.205 238.631 394.389C238.035 395.666 237.845 397.094 238.085 398.482C238.326 399.871 238.986 401.152 239.977 402.153L248.548 410.727C249.182 411.362 249.685 412.114 250.028 412.943C250.371 413.772 250.548 414.66 250.548 415.557C250.548 416.454 250.371 417.342 250.028 418.17C249.685 418.999 249.182 419.752 248.548 420.386L240.923 428.025C240.289 428.66 239.537 429.163 238.709 429.506C237.88 429.849 236.992 430.026 236.096 430.026C235.199 430.026 234.311 429.849 233.483 429.506C232.655 429.163 231.902 428.66 231.268 428.025L222.684 419.439C221.684 418.446 220.403 417.785 219.015 417.544C217.627 417.303 216.198 417.495 214.922 418.093C213.676 418.654 212.505 419.165 211.259 419.613C209.946 420.097 208.812 420.971 208.01 422.119C207.209 423.266 206.777 424.631 206.774 426.031V438.17C206.774 439.067 206.598 439.955 206.255 440.783C205.911 441.612 205.409 442.365 204.775 442.999C204.141 443.633 203.388 444.136 202.56 444.48C201.731 444.823 200.844 444.999 199.947 444.999H189.158C188.261 444.999 187.373 444.823 186.545 444.48C185.717 444.136 184.964 443.633 184.33 442.999C183.696 442.365 183.193 441.612 182.85 440.783C182.507 439.955 182.33 439.067 182.33 438.17V426.031C182.328 424.631 181.896 423.266 181.094 422.119C180.292 420.971 179.159 420.097 177.845 419.613C176.599 419.165 175.354 418.654 174.182 418.093C172.907 417.495 171.478 417.303 170.09 417.544C168.702 417.785 167.421 418.446 166.421 419.439L157.837 428.025C157.203 428.66 156.45 429.163 155.622 429.506C154.793 429.849 153.906 430.026 153.009 430.026C152.112 430.026 151.225 429.849 150.396 429.506C149.568 429.163 148.815 428.66 148.181 428.025L140.557 420.386C139.923 419.752 139.42 418.999 139.077 418.17C138.733 417.342 138.557 416.454 138.557 415.557C138.557 414.66 138.733 413.772 139.077 412.943C139.42 412.114 139.923 411.362 140.557 410.727L149.141 402.153C150.132 401.152 150.792 399.87 151.031 398.481C151.269 397.092 151.075 395.664 150.474 394.389C149.925 393.143 149.415 391.959 148.954 390.713C148.473 389.397 147.6 388.261 146.452 387.458C145.304 386.655 143.938 386.225 142.537 386.226H130.415C129.518 386.228 128.628 386.052 127.799 385.71C126.969 385.367 126.215 384.864 125.579 384.23C124.944 383.596 124.44 382.842 124.096 382.013C123.752 381.184 123.575 380.294 123.575 379.397V368.616C123.575 366.802 124.296 365.062 125.579 363.778C126.861 362.495 128.601 361.775 130.415 361.775ZM194.552 410.565C204.245 410.562 213.539 406.708 220.392 399.851C227.244 392.994 231.094 383.696 231.094 374C231.094 364.306 227.244 355.009 220.391 348.154C213.538 341.299 204.244 337.448 194.552 337.448C184.861 337.448 175.567 341.299 168.714 348.154C161.861 355.009 158.011 364.306 158.011 374C158.011 383.696 161.861 392.994 168.713 399.851C175.565 406.708 184.86 410.562 194.552 410.565Z" fill="#DADEF1"/>
</g>
<path d="M320.16 434.469H328.321C330.025 434.465 331.658 433.787 332.863 432.581C334.068 431.376 334.746 429.742 334.75 428.038V418.853C334.739 418.039 334.982 417.242 335.444 416.573C335.906 415.903 336.564 415.393 337.329 415.114C338.288 414.753 339.26 414.354 340.194 413.868C340.93 413.526 341.752 413.417 342.551 413.556C343.35 413.694 344.088 414.072 344.667 414.641L351.17 421.134C351.763 421.733 352.469 422.208 353.248 422.531C354.027 422.855 354.862 423.019 355.705 423.016C356.55 423.019 357.387 422.855 358.168 422.532C358.949 422.209 359.657 421.734 360.252 421.134L366.021 415.364C366.62 414.768 367.096 414.059 367.419 413.278C367.742 412.497 367.906 411.66 367.902 410.815C367.906 409.971 367.741 409.136 367.418 408.357C367.095 407.578 366.62 406.871 366.021 406.278L359.53 399.773C358.961 399.194 358.583 398.456 358.445 397.657C358.307 396.857 358.416 396.035 358.757 395.299C359.193 394.364 359.592 393.405 360.003 392.432C360.282 391.668 360.792 391.009 361.461 390.547C362.131 390.085 362.927 389.842 363.741 389.853H372.923C374.627 389.849 376.26 389.171 377.465 387.966C378.67 386.76 379.348 385.127 379.352 383.422V375.396C379.348 373.692 378.67 372.058 377.465 370.853C376.26 369.647 374.627 368.969 372.923 368.965H363.741C362.927 368.976 362.131 368.733 361.461 368.271C360.792 367.809 360.282 367.15 360.003 366.386C359.642 365.414 359.243 364.442 358.757 363.519C358.416 362.784 358.307 361.961 358.445 361.162C358.583 360.362 358.961 359.624 359.53 359.045L366.021 352.54C366.62 351.947 367.095 351.24 367.418 350.461C367.741 349.682 367.906 348.847 367.902 348.003C367.906 347.158 367.742 346.321 367.419 345.54C367.096 344.759 366.62 344.05 366.021 343.455L360.252 337.685C359.047 336.481 357.414 335.806 355.711 335.806C354.009 335.806 352.375 336.481 351.17 337.685L344.667 344.178C344.09 344.749 343.352 345.13 342.552 345.268C341.752 345.406 340.929 345.295 340.194 344.95C339.272 344.514 338.3 344.115 337.329 343.704C336.564 343.425 335.906 342.915 335.444 342.246C334.982 341.576 334.739 340.779 334.75 339.965V330.78C334.746 329.076 334.068 327.442 332.863 326.237C331.658 325.031 330.025 324.353 328.321 324.35H320.16C318.458 324.353 316.826 325.032 315.623 326.238C314.42 327.443 313.744 329.077 313.744 330.78V339.965C313.752 340.78 313.507 341.577 313.043 342.247C312.579 342.916 311.918 343.425 311.153 343.704C310.181 344.065 309.222 344.464 308.287 344.95C307.553 345.295 306.729 345.406 305.929 345.268C305.13 345.13 304.391 344.749 303.815 344.178L297.311 337.685C296.108 336.482 294.477 335.807 292.776 335.807C291.076 335.807 289.445 336.482 288.241 337.685L282.461 343.455C281.863 344.052 281.389 344.761 281.067 345.541C280.744 346.322 280.578 347.159 280.579 348.003C280.579 348.846 280.744 349.681 281.067 350.46C281.39 351.238 281.864 351.945 282.461 352.54L288.964 359.045C289.53 359.625 289.906 360.364 290.042 361.164C290.178 361.963 290.067 362.785 289.724 363.519C289.288 364.442 288.889 365.414 288.478 366.386C288.203 367.14 287.703 367.792 287.046 368.253C286.388 368.715 285.606 368.963 284.803 368.965H275.608C273.908 368.972 272.279 369.653 271.079 370.858C269.878 372.063 269.205 373.695 269.205 375.396V383.559C269.205 385.262 269.88 386.896 271.083 388.102C272.286 389.308 273.918 389.986 275.621 389.99H284.815C285.618 389.992 286.401 390.241 287.058 390.702C287.715 391.163 288.215 391.815 288.491 392.57C288.852 393.542 289.251 394.501 289.736 395.436C290.079 396.171 290.19 396.992 290.055 397.792C289.919 398.591 289.543 399.33 288.976 399.91L282.473 406.415C281.876 407.01 281.402 407.717 281.08 408.496C280.757 409.274 280.591 410.109 280.592 410.952C280.591 411.797 280.756 412.633 281.079 413.414C281.402 414.194 281.876 414.904 282.473 415.501L288.254 421.271C288.846 421.871 289.552 422.347 290.331 422.671C291.11 422.994 291.946 423.158 292.789 423.153C293.632 423.158 294.468 422.994 295.247 422.671C296.025 422.347 296.732 421.871 297.324 421.271L303.827 414.778C304.406 414.209 305.144 413.831 305.943 413.693C306.742 413.555 307.564 413.664 308.3 414.005C309.247 414.445 310.206 414.861 311.178 415.251C311.94 415.533 312.597 416.044 313.058 416.713C313.52 417.382 313.764 418.177 313.757 418.99V428.175C313.792 429.852 314.482 431.449 315.679 432.625C316.875 433.801 318.483 434.462 320.16 434.469ZM341.888 411.101C340.941 411.102 340.006 411.311 339.147 411.712C338.275 412.111 337.366 412.485 336.469 412.821C335.236 413.278 334.173 414.1 333.42 415.178C332.668 416.256 332.262 417.538 332.258 418.853V428.038C332.255 429.081 331.839 430.081 331.101 430.819C330.364 431.557 329.364 431.973 328.321 431.976H320.16C319.119 431.973 318.12 431.556 317.385 430.818C316.649 430.08 316.236 429.08 316.236 428.038V418.853C316.232 417.536 315.826 416.252 315.071 415.174C314.316 414.096 313.248 413.274 312.013 412.821C311.115 412.497 310.218 412.123 309.334 411.712C308.137 411.151 306.797 410.97 305.495 411.193C304.192 411.416 302.988 412.032 302.046 412.958L295.555 419.464C294.806 420.178 293.811 420.577 292.776 420.577C291.742 420.577 290.747 420.178 289.998 419.464L284.217 413.681C283.853 413.316 283.564 412.882 283.368 412.406C283.171 411.929 283.07 411.418 283.071 410.902C283.071 409.86 283.483 408.861 284.217 408.123L290.721 401.63C291.647 400.687 292.263 399.483 292.485 398.18C292.708 396.877 292.527 395.537 291.967 394.339C291.568 393.467 291.194 392.57 290.858 391.66C290.405 390.427 289.585 389.362 288.51 388.609C287.434 387.856 286.153 387.451 284.84 387.447H275.646C274.604 387.444 273.606 387.028 272.87 386.29C272.134 385.551 271.721 384.552 271.721 383.509V375.396C271.721 374.354 272.134 373.354 272.87 372.616C273.606 371.878 274.604 371.461 275.646 371.458H284.84C286.154 371.456 287.435 371.052 288.511 370.298C289.587 369.545 290.406 368.479 290.858 367.246C291.194 366.336 291.568 365.439 291.967 364.566C292.527 363.369 292.708 362.029 292.485 360.726C292.263 359.423 291.647 358.219 290.721 357.276L284.217 350.783C283.483 350.044 283.071 349.045 283.071 348.003C283.07 347.488 283.171 346.977 283.368 346.5C283.564 346.023 283.853 345.59 284.217 345.224L289.998 339.442C290.736 338.707 291.735 338.294 292.776 338.294C293.818 338.294 294.817 338.707 295.555 339.442L302.046 345.947C302.988 346.874 304.192 347.49 305.495 347.713C306.797 347.935 308.137 347.754 309.334 347.193C310.206 346.795 311.103 346.421 312.013 346.084C313.249 345.633 314.318 344.812 315.073 343.733C315.828 342.654 316.234 341.369 316.236 340.052V330.867C316.236 329.825 316.649 328.825 317.385 328.087C318.12 327.349 319.119 326.933 320.16 326.929H328.321C329.364 326.933 330.364 327.349 331.101 328.086C331.839 328.824 332.255 329.824 332.258 330.867V340.052C332.26 341.368 332.665 342.65 333.418 343.729C334.171 344.807 335.235 345.629 336.469 346.084C337.378 346.421 338.288 346.795 339.147 347.193C340.344 347.754 341.684 347.935 342.987 347.713C344.29 347.49 345.493 346.874 346.436 345.947L352.927 339.442C353.665 338.707 354.664 338.294 355.705 338.294C356.746 338.294 357.745 338.707 358.483 339.442L364.264 345.224C364.628 345.59 364.917 346.023 365.114 346.5C365.31 346.977 365.411 347.488 365.41 348.003C365.411 349.045 364.999 350.044 364.264 350.783L357.761 357.276C356.834 358.219 356.219 359.423 355.996 360.726C355.773 362.029 355.954 363.369 356.515 364.566C356.914 365.439 357.287 366.336 357.624 367.246C358.077 368.48 358.899 369.546 359.977 370.3C361.055 371.053 362.338 371.457 363.654 371.458H372.836C373.879 371.461 374.878 371.877 375.616 372.615C376.353 373.353 376.769 374.353 376.773 375.396V383.559C376.769 384.603 376.353 385.602 375.616 386.34C374.878 387.078 373.879 387.494 372.836 387.497H363.654C362.339 387.502 361.058 387.907 359.98 388.66C358.903 389.413 358.08 390.477 357.624 391.71C357.287 392.619 356.914 393.517 356.515 394.389C355.954 395.586 355.773 396.926 355.996 398.23C356.219 399.533 356.834 400.737 357.761 401.68L364.264 408.173C364.999 408.911 365.411 409.91 365.41 410.952C365.411 411.468 365.31 411.979 365.114 412.455C364.917 412.932 364.628 413.366 364.264 413.731L358.483 419.514C357.735 420.228 356.74 420.627 355.705 420.627C354.67 420.627 353.675 420.228 352.927 419.514L346.436 413.008C345.84 412.407 345.132 411.929 344.352 411.602C343.571 411.275 342.734 411.105 341.888 411.101ZM324.247 408.372C331.915 408.365 339.268 405.316 344.691 399.893C350.115 394.471 353.166 387.117 353.176 379.446C353.179 371.767 350.134 364.401 344.709 358.967C339.284 353.534 331.924 350.478 324.247 350.471C316.579 350.491 309.231 353.553 303.817 358.985C298.403 364.417 295.364 371.776 295.368 379.446C295.378 387.109 298.422 394.454 303.835 399.876C309.248 405.297 316.587 408.352 324.247 408.372ZM324.247 353.001C331.256 353.008 337.977 355.796 342.934 360.754C347.89 365.712 350.678 372.435 350.684 379.446C350.674 386.456 347.885 393.176 342.929 398.131C337.973 403.086 331.254 405.873 324.247 405.88C317.248 405.86 310.542 403.067 305.597 398.113C300.651 393.159 297.869 386.447 297.859 379.446C297.856 372.437 300.632 365.712 305.579 360.747C310.526 355.783 317.24 352.983 324.247 352.964V353.001Z" fill="#DADEF1"/>
</g>
<g opacity="0.81">
<path d="M55.8508 299.276H72.0471C72.3775 299.276 72.6944 299.145 72.928 298.911C73.1617 298.677 73.2929 298.36 73.2929 298.03C73.2929 297.699 73.1617 297.382 72.928 297.148C72.6944 296.915 72.3775 296.783 72.0471 296.783H55.8508C55.5204 296.783 55.2035 296.915 54.9699 297.148C54.7362 297.382 54.605 297.699 54.605 298.03C54.605 298.36 54.7362 298.677 54.9699 298.911C55.2035 299.145 55.5204 299.276 55.8508 299.276Z" fill="#DADEF1"/>
<path d="M55.8508 326.045H72.0471C72.3775 326.045 72.6944 325.914 72.928 325.68C73.1617 325.447 73.2929 325.13 73.2929 324.799C73.2929 324.469 73.1617 324.152 72.928 323.918C72.6944 323.684 72.3775 323.553 72.0471 323.553H55.8508C55.5204 323.553 55.2035 323.684 54.9699 323.918C54.7362 324.152 54.605 324.469 54.605 324.799C54.605 325.13 54.7362 325.447 54.9699 325.68C55.2035 325.914 55.5204 326.045 55.8508 326.045Z" fill="#DADEF1"/>
<path d="M44.8764 353.089H143.624C144.519 353.089 145.378 352.733 146.011 352.1C146.644 351.467 147 350.607 147 349.712V267.122C147 266.227 146.644 265.368 146.011 264.734C145.378 264.101 144.519 263.745 143.624 263.745H44.8764C43.9809 263.745 43.1222 264.101 42.489 264.734C41.8558 265.368 41.5001 266.227 41.5001 267.122V349.712C41.5001 350.607 41.8558 351.467 42.489 352.1C43.1222 352.733 43.9809 353.089 44.8764 353.089ZM143.624 266.238C143.858 266.238 144.083 266.331 144.249 266.497C144.415 266.663 144.508 266.888 144.508 267.122V349.712C144.508 349.946 144.415 350.171 144.249 350.337C144.083 350.503 143.858 350.597 143.624 350.597H44.8764C44.6418 350.597 44.4168 350.503 44.2509 350.337C44.085 350.171 43.9918 349.946 43.9918 349.712V267.122C43.9918 266.888 44.085 266.663 44.2509 266.497C44.4168 266.331 44.6418 266.238 44.8764 266.238H143.624Z" fill="#DADEF1"/>
<path d="M55.8505 286.289H133.256C133.587 286.289 133.903 286.158 134.137 285.924C134.371 285.691 134.502 285.374 134.502 285.043C134.502 284.713 134.371 284.396 134.137 284.162C133.903 283.928 133.587 283.797 133.256 283.797H55.8505C55.52 283.797 55.2031 283.928 54.9695 284.162C54.7359 284.396 54.6046 284.713 54.6046 285.043C54.6046 285.374 54.7359 285.691 54.9695 285.924C55.2031 286.158 55.52 286.289 55.8505 286.289Z" fill="#DADEF1"/>
<path d="M55.8505 312.275H133.256C133.587 312.275 133.903 312.143 134.137 311.91C134.371 311.676 134.502 311.359 134.502 311.028C134.502 310.698 134.371 310.381 134.137 310.147C133.903 309.914 133.587 309.782 133.256 309.782H55.8505C55.52 309.782 55.2031 309.914 54.9695 310.147C54.7359 310.381 54.6046 310.698 54.6046 311.028C54.6046 311.359 54.7359 311.676 54.9695 311.91C55.2031 312.143 55.52 312.275 55.8505 312.275Z" fill="#DADEF1"/>
<path d="M91.5196 299.276H133.256C133.587 299.276 133.903 299.144 134.137 298.911C134.371 298.677 134.502 298.36 134.502 298.029C134.502 297.699 134.371 297.382 134.137 297.148C133.903 296.914 133.587 296.783 133.256 296.783H91.5196C91.1892 296.783 90.8723 296.914 90.6386 297.148C90.405 297.382 90.2737 297.699 90.2737 298.029C90.2737 298.36 90.405 298.677 90.6386 298.911C90.8723 299.144 91.1892 299.276 91.5196 299.276Z" fill="white"/>
<path d="M91.5196 326.045H133.256C133.587 326.045 133.903 325.914 134.137 325.68C134.371 325.447 134.502 325.13 134.502 324.799C134.502 324.468 134.371 324.151 134.137 323.918C133.903 323.684 133.587 323.553 133.256 323.553H91.5196C91.1892 323.553 90.8723 323.684 90.6386 323.918C90.405 324.151 90.2737 324.468 90.2737 324.799C90.2737 325.13 90.405 325.447 90.6386 325.68C90.8723 325.914 91.1892 326.045 91.5196 326.045Z" fill="white"/>
<path d="M105.112 338.458H133.256C133.587 338.458 133.903 338.327 134.137 338.093C134.371 337.86 134.502 337.543 134.502 337.212C134.502 336.882 134.371 336.565 134.137 336.331C133.903 336.097 133.587 335.966 133.256 335.966H105.112C104.782 335.966 104.465 336.097 104.231 336.331C103.997 336.565 103.866 336.882 103.866 337.212C103.866 337.543 103.997 337.86 104.231 338.093C104.465 338.327 104.782 338.458 105.112 338.458Z" fill="white"/>
</g>
<g opacity="0.81">
<path d="M371.851 162.985H390.278C390.608 162.985 390.925 162.853 391.159 162.62C391.392 162.386 391.523 162.069 391.523 161.738C391.523 161.408 391.392 161.091 391.159 160.857C390.925 160.623 390.608 160.492 390.278 160.492H371.851C371.521 160.492 371.204 160.623 370.97 160.857C370.737 161.091 370.605 161.408 370.605 161.738C370.605 162.069 370.737 162.386 370.97 162.62C371.204 162.853 371.521 162.985 371.851 162.985Z" fill="#DADEF1"/>
<path d="M371.851 193.356H390.278C390.608 193.356 390.925 193.224 391.159 192.991C391.392 192.757 391.523 192.44 391.523 192.11C391.523 191.779 391.392 191.462 391.159 191.228C390.925 190.995 390.608 190.863 390.278 190.863H371.851C371.521 190.863 371.204 190.995 370.97 191.228C370.737 191.462 370.605 191.779 370.605 192.11C370.605 192.44 370.737 192.757 370.97 192.991C371.204 193.224 371.521 193.356 371.851 193.356Z" fill="white"/>
<path d="M358.533 224.039H471.147C472.043 224.039 472.901 223.683 473.535 223.05C474.168 222.416 474.523 221.557 474.523 220.661V126.382C474.523 125.939 474.436 125.5 474.266 125.09C474.097 124.68 473.848 124.308 473.535 123.994C473.221 123.68 472.849 123.432 472.439 123.262C472.03 123.092 471.591 123.005 471.147 123.005H358.533C358.09 123.005 357.651 123.092 357.241 123.262C356.832 123.432 356.46 123.68 356.146 123.994C355.832 124.308 355.584 124.68 355.414 125.09C355.244 125.5 355.157 125.939 355.157 126.382V220.661C355.16 221.556 355.517 222.413 356.15 223.046C356.782 223.679 357.639 224.035 358.533 224.039ZM471.147 125.497C471.382 125.497 471.607 125.591 471.773 125.757C471.939 125.923 472.032 126.148 472.032 126.382V220.661C472.032 220.896 471.939 221.121 471.773 221.287C471.607 221.453 471.382 221.546 471.147 221.546H358.533C358.299 221.546 358.074 221.453 357.908 221.287C357.742 221.121 357.649 220.896 357.649 220.661V126.382C357.649 126.148 357.742 125.923 357.908 125.757C358.074 125.591 358.299 125.497 358.533 125.497H471.147Z" fill="#DADEF1"/>
<path d="M371.852 148.242H459.66C459.991 148.242 460.308 148.11 460.541 147.877C460.775 147.643 460.906 147.326 460.906 146.995C460.906 146.665 460.775 146.348 460.541 146.114C460.308 145.88 459.991 145.749 459.66 145.749H371.852C371.521 145.749 371.204 145.88 370.971 146.114C370.737 146.348 370.606 146.665 370.606 146.995C370.606 147.326 370.737 147.643 370.971 147.877C371.204 148.11 371.521 148.242 371.852 148.242Z" fill="#DADEF1"/>
<path d="M371.852 177.728H459.66C459.991 177.728 460.308 177.597 460.541 177.363C460.775 177.129 460.906 176.812 460.906 176.482C460.906 176.151 460.775 175.834 460.541 175.6C460.308 175.367 459.991 175.235 459.66 175.235H371.852C371.521 175.235 371.204 175.367 370.971 175.6C370.737 175.834 370.606 176.151 370.606 176.482C370.606 176.812 370.737 177.129 370.971 177.363C371.204 177.597 371.521 177.728 371.852 177.728Z" fill="#DADEF1"/>
<path d="M412.317 162.985H459.66C459.991 162.985 460.308 162.853 460.541 162.62C460.775 162.386 460.906 162.069 460.906 161.738C460.906 161.408 460.775 161.091 460.541 160.857C460.308 160.623 459.991 160.492 459.66 160.492H412.317C411.987 160.492 411.67 160.623 411.436 160.857C411.203 161.091 411.072 161.408 411.072 161.738C411.072 162.069 411.203 162.386 411.436 162.62C411.67 162.853 411.987 162.985 412.317 162.985Z" fill="#DADEF1"/>
<path d="M412.317 193.356H459.66C459.991 193.356 460.308 193.225 460.541 192.991C460.775 192.757 460.906 192.44 460.906 192.11C460.906 191.779 460.775 191.462 460.541 191.228C460.308 190.995 459.991 190.863 459.66 190.863H412.317C411.987 190.863 411.67 190.995 411.436 191.228C411.203 191.462 411.072 191.779 411.072 192.11C411.072 192.44 411.203 192.757 411.436 192.991C411.67 193.225 411.987 193.356 412.317 193.356Z" fill="#DADEF1"/>
<path d="M427.729 207.426H459.66C459.991 207.426 460.308 207.295 460.541 207.061C460.775 206.827 460.906 206.51 460.906 206.18C460.906 205.849 460.775 205.532 460.541 205.299C460.308 205.065 459.991 204.934 459.66 204.934H427.729C427.398 204.934 427.081 205.065 426.848 205.299C426.614 205.532 426.483 205.849 426.483 206.18C426.483 206.51 426.614 206.827 426.848 207.061C427.081 207.295 427.398 207.426 427.729 207.426Z" fill="#DADEF1"/>
</g>
<path d="M27.4425 121.161H83.4442C84.7383 121.22 85.9786 121.696 86.9801 122.518C87.9815 123.34 88.6903 124.464 89.0007 125.722L90.8571 131.879C91.168 133.136 91.8773 134.258 92.8789 135.078C93.8805 135.898 95.1206 136.371 96.4136 136.428H176.573C179.824 136.428 182.453 139.469 182.453 143.22V234.022C182.453 237.761 179.824 240.802 176.573 240.802H27.4425C25.7218 240.717 24.1033 239.959 22.9375 238.69C21.7716 237.421 21.1522 235.744 21.2132 234.022V127.978C21.1421 126.25 21.757 124.563 22.9239 123.286C24.0908 122.009 25.715 121.245 27.4425 121.161Z" fill="#4252A6"/>
<path d="M84.6389 137.363L82.658 131.206C82.2819 129.915 81.504 128.778 80.4374 127.96C79.3709 127.142 78.0713 126.686 76.7276 126.657H27.4412C25.7193 126.738 24.0989 127.496 22.9324 128.765C21.7659 130.035 21.1476 131.714 21.2119 133.437V239.555C21.1475 241.28 21.7655 242.96 22.9317 244.232C24.0978 245.503 25.7182 246.263 27.4412 246.347H176.16C177.884 246.267 179.507 245.507 180.673 244.235C181.84 242.963 182.457 241.281 182.39 239.555V148.766C182.457 147.041 181.84 145.358 180.673 144.086C179.507 142.814 177.884 142.055 176.16 141.974H90.5692C89.2191 141.935 87.9164 141.468 86.85 140.639C85.7836 139.809 85.0091 138.662 84.6389 137.363Z" fill="#4252A6"/>
<path opacity="0.12" d="M81.0137 143.668L79.1449 137.873C78.7792 136.663 78.0397 135.6 77.0325 134.836C76.0252 134.073 74.8021 133.648 73.5386 133.623H27.0678C25.4418 133.704 23.9121 134.418 22.8061 135.613C21.7001 136.808 21.1056 138.388 21.1499 140.016V239.991C21.1022 241.621 21.6952 243.205 22.8016 244.402C23.908 245.6 25.4396 246.316 27.0678 246.397H167.265C168.893 246.316 170.425 245.6 171.531 244.402C172.638 243.205 173.231 241.621 173.183 239.991V154.373C173.231 152.743 172.638 151.16 171.531 149.962C170.425 148.764 168.893 148.048 167.265 147.967H86.5828C85.3184 147.935 84.097 147.501 83.0958 146.728C82.0945 145.955 81.3653 144.883 81.0137 143.668Z" fill="white"/>
<path d="M38.1434 238.695H74.9338C75.2642 238.695 75.5811 238.564 75.8148 238.33C76.0484 238.096 76.1797 237.779 76.1797 237.449C76.1797 237.118 76.0484 236.801 75.8148 236.568C75.5811 236.334 75.2642 236.203 74.9338 236.203H38.1434C37.0023 236.199 35.9091 235.744 35.1033 234.935C34.2976 234.127 33.8452 233.032 33.8452 231.891V202.703C33.8452 202.373 33.7139 202.056 33.4803 201.822C33.2466 201.588 32.9297 201.457 32.5993 201.457C32.2689 201.457 31.952 201.588 31.7184 201.822C31.4847 202.056 31.3535 202.373 31.3535 202.703V231.891C31.3534 233.693 32.0684 235.422 33.3414 236.698C34.6144 237.973 36.3415 238.692 38.1434 238.695Z" fill="white"/>
<path d="M540.683 224.438H484.321C481.829 224.438 479.561 226.506 478.727 229.572L476.858 236.501C476.035 239.567 473.793 241.623 471.276 241.623H390.594C387.317 241.623 384.664 245.051 384.664 249.263V351.393C384.664 355.618 387.317 359.033 390.594 359.033H540.683C544.172 359.033 547 355.618 547 351.393V232.077C547 227.865 544.172 224.438 540.683 224.438Z" fill="#FF6F80"/>
<path opacity="0.12" d="M483.1 242.708L485.093 235.779C485.396 234.391 486.142 233.14 487.218 232.213C488.295 231.287 489.644 230.736 491.061 230.645H540.683C544.172 230.645 547 234.072 547 238.284V357.6C547 361.813 544.172 365.24 540.683 365.24H390.993C387.504 365.24 384.664 361.813 384.664 357.6V255.408C384.664 251.183 387.504 247.768 390.993 247.768H477.132C478.539 247.683 479.882 247.143 480.957 246.231C482.033 245.319 482.785 244.083 483.1 242.708Z" fill="white"/>
<path opacity="0.12" d="M486.775 249.737L488.656 243.219C488.937 241.91 489.638 240.729 490.652 239.856C491.667 238.983 492.939 238.466 494.275 238.384H541.045C544.334 238.384 547 241.599 547 245.575V358.037C547 362.012 544.334 365.24 541.045 365.24H399.95C396.661 365.24 393.995 362.012 393.995 358.037V261.776C393.995 257.8 396.661 254.573 399.95 254.573H481.144C482.481 254.491 483.755 253.975 484.772 253.102C485.789 252.229 486.492 251.047 486.775 249.737Z" fill="white"/>
<path d="M535.487 268.281C535.793 268.247 536.076 268.101 536.281 267.871C536.486 267.641 536.598 267.343 536.596 267.035V249.737C536.651 248.681 536.291 247.645 535.593 246.851C534.894 246.057 533.913 245.567 532.858 245.487H509.636C509.327 245.518 509.041 245.663 508.834 245.894C508.627 246.124 508.513 246.424 508.514 246.734C508.513 247.044 508.627 247.343 508.834 247.574C509.041 247.804 509.327 247.949 509.636 247.98H532.858C533.299 248.006 533.712 248.205 534.006 248.534C534.3 248.864 534.452 249.296 534.428 249.737V267.035C534.425 267.336 534.53 267.627 534.725 267.856C534.919 268.085 535.19 268.236 535.487 268.281Z" fill="white"/>
<path d="M179.752 74.5508H339.858C366.445 74.5508 387.998 96.1106 387.998 122.706C387.998 149.301 366.445 170.861 339.858 170.861H179.752C153.165 170.861 131.611 149.301 131.611 122.706C131.611 96.1106 153.165 74.5508 179.752 74.5508Z" fill="#10C1D6"/>
<path d="M259.811 149.638C222.422 149.638 192.111 119.318 192.111 81.9168C192.111 44.5152 222.422 14.1953 259.811 14.1953C297.201 14.1953 327.512 44.5152 327.512 81.9168C327.512 119.318 297.201 149.638 259.811 149.638Z" fill="#10C1D6"/>
<path d="M179.752 60.3564H339.858C366.445 60.3564 387.998 81.9163 387.998 108.512C387.998 135.107 366.445 156.667 339.858 156.667H179.752C153.165 156.667 131.611 135.107 131.611 108.512C131.611 81.9163 153.165 60.3564 179.752 60.3564Z" fill="#10C1D6"/>
<path d="M233.016 129.934C198.678 115.134 182.836 75.2908 197.631 40.9421C212.427 6.59335 252.257 -9.25402 286.595 5.54598C320.933 20.346 336.776 60.1889 321.98 94.5376C307.185 128.886 267.354 144.734 233.016 129.934Z" fill="#10C1D6"/>
<g opacity="0.35">
<path d="M179.752 60.3564H339.858C366.445 60.3564 387.998 81.9163 387.998 108.512C387.998 135.107 366.445 156.667 339.858 156.667H179.752C153.165 156.667 131.611 135.107 131.611 108.512C131.611 81.9163 153.165 60.3564 179.752 60.3564Z" fill="#F2F4F9"/>
<path d="M233.014 129.934C198.676 115.134 182.834 75.2908 197.629 40.9421C212.425 6.59335 252.255 -9.25402 286.593 5.54598C320.931 20.346 336.774 60.1889 321.978 94.5376C307.183 128.886 267.352 144.734 233.014 129.934Z" fill="#F2F4F9"/>
</g>
<path d="M275.647 77.8039C276.06 77.8037 276.469 77.7209 276.85 77.5604C277.231 77.3999 277.576 77.1649 277.865 76.8692C278.447 76.2852 278.773 75.4942 278.773 74.6696C278.773 73.8449 278.447 73.0539 277.865 72.4699L259.7 54.5986L241.797 72.4824C241.217 73.0701 240.892 73.8626 240.892 74.6883C240.892 75.5139 241.217 76.3064 241.797 76.8941C242.384 77.4741 243.177 77.7992 244.002 77.7992C244.827 77.7992 245.62 77.4741 246.207 76.8941L259.725 63.3723L273.429 76.9066C273.722 77.195 274.068 77.4227 274.449 77.5767C274.829 77.7307 275.236 77.8079 275.647 77.8039Z" fill="white"/>
<path d="M259.811 102.579C260.637 102.579 261.429 102.25 262.014 101.666C262.598 101.082 262.926 100.289 262.926 99.4631V58.9848C262.926 58.1585 262.598 57.366 262.014 56.7817C261.429 56.1974 260.637 55.8691 259.811 55.8691C258.985 55.8691 258.193 56.1974 257.609 56.7817C257.025 57.366 256.696 58.1585 256.696 58.9848V99.4631C256.696 100.289 257.025 101.082 257.609 101.666C258.193 102.25 258.985 102.579 259.811 102.579Z" fill="white"/>
<path d="M230.373 121.808H289.713C291.761 121.805 293.724 120.99 295.171 119.542C296.619 118.093 297.434 116.13 297.438 114.082V92.4965C297.438 91.6702 297.109 90.8777 296.525 90.2934C295.941 89.7091 295.149 89.3809 294.323 89.3809C293.913 89.3792 293.508 89.4587 293.129 89.6147C292.75 89.7707 292.406 90.0001 292.117 90.2898C291.827 90.5794 291.598 90.9235 291.442 91.3023C291.286 91.681 291.207 92.0869 291.208 92.4965V114.057C291.208 114.453 291.051 114.834 290.77 115.114C290.49 115.395 290.11 115.552 289.713 115.552H230.373C229.854 115.552 229.356 115.346 228.989 114.979C228.623 114.612 228.417 114.115 228.417 113.596V92.4965C228.417 91.6702 228.088 90.8777 227.504 90.2934C226.92 89.7091 226.128 89.3809 225.302 89.3809C224.476 89.3809 223.684 89.7091 223.099 90.2934C222.515 90.8777 222.187 91.6702 222.187 92.4965V113.683C222.207 115.843 223.078 117.907 224.61 119.429C226.143 120.95 228.213 121.805 230.373 121.808Z" fill="white"/>
<path opacity="0.5" d="M193.052 327.952L362.901 384.033C364.883 384.689 367.045 384.532 368.913 383.598C370.78 382.664 372.202 381.028 372.867 379.048L428.931 209.159C429.58 207.175 429.421 205.016 428.488 203.149C427.555 201.283 425.923 199.859 423.948 199.189L254.099 143.107C252.116 142.455 249.956 142.613 248.089 143.546C246.222 144.48 244.8 146.114 244.132 148.092L188.068 317.981C187.42 319.965 187.579 322.124 188.512 323.991C189.445 325.857 191.076 327.281 193.052 327.952Z" fill="#DADEF1"/>
<path d="M266.634 136.721L436.476 192.843C440.631 194.216 442.887 198.699 441.515 202.855L385.41 372.751C384.038 376.907 379.557 379.164 375.401 377.791L205.559 321.669C201.404 320.296 199.148 315.813 200.52 311.657L256.625 141.761C257.997 137.605 262.479 135.348 266.634 136.721Z" fill="white"/>
<path d="M269.773 155.222L423.172 205.91L372.5 359.357L219.101 308.668L269.773 155.222Z" fill="#4252A6"/>
<path opacity="0.47" d="M373.764 360.666L385.238 325.933L368.456 285.467C367.356 282.771 365.281 280.588 362.645 279.353C360.009 278.117 357.004 277.92 354.229 278.8L323.157 288.446C322.268 288.723 321.311 288.693 320.441 288.361C319.571 288.029 318.838 287.413 318.36 286.614L292.496 243.556C289.815 239.126 285.626 235.812 280.698 234.223C275.771 232.634 270.436 232.877 265.673 234.907L237.18 247.17L236.918 247.967L216.822 308.797L218.604 309.383L373.764 360.666ZM381.239 326.083L371.384 355.993L221.532 306.479L240.22 249.986L267.155 238.396C271.087 236.718 275.492 236.515 279.561 237.824C283.631 239.134 287.091 241.868 289.307 245.525L315.171 288.595C316.078 290.114 317.47 291.282 319.122 291.913C320.774 292.544 322.59 292.6 324.278 292.072L355.35 282.414C357.237 281.82 359.278 281.956 361.068 282.796C362.859 283.636 364.269 285.119 365.018 286.95L381.239 326.083Z" fill="white"/>
<path opacity="0.47" d="M322.559 241.026C326.748 241.016 330.827 239.686 334.218 237.225C337.608 234.764 340.137 231.297 341.446 227.317C343.087 222.309 342.679 216.855 340.312 212.147C337.945 207.44 333.81 203.861 328.813 202.192C323.805 200.552 318.352 200.962 313.645 203.332C308.938 205.703 305.362 209.841 303.697 214.842C302.056 219.85 302.464 225.304 304.831 230.011C307.198 234.719 311.332 238.298 316.33 239.966C318.336 240.652 320.439 241.009 322.559 241.026ZM322.559 204.984C324.273 204.985 325.976 205.259 327.605 205.794C331.662 207.149 335.019 210.055 336.943 213.877C338.866 217.7 339.2 222.128 337.871 226.195C336.516 230.254 333.611 233.612 329.79 235.536C325.969 237.46 321.542 237.794 317.476 236.464C313.42 235.107 310.066 232.2 308.145 228.378C306.224 224.556 305.893 220.129 307.222 216.063C308.297 212.838 310.359 210.032 313.116 208.044C315.873 206.055 319.185 204.985 322.584 204.984H322.559Z" fill="white"/>
<path opacity="0.5" d="M94.5069 210.068H227.092C231.468 210.068 235.016 213.617 235.016 217.995V350.621C235.016 354.998 231.468 358.547 227.092 358.547H94.5069C90.1308 358.547 86.5832 354.998 86.5832 350.621V217.995C86.5832 213.617 90.1308 210.068 94.5069 210.068Z" fill="#DADEF1"/>
<path d="M102.03 202.528H234.615C238.991 202.528 242.539 206.077 242.539 210.454V343.081C242.539 347.458 238.991 351.007 234.615 351.007H102.03C97.6542 351.007 94.1066 347.458 94.1066 343.081V210.454C94.1066 206.077 97.6542 202.528 102.03 202.528Z" fill="white"/>
<path opacity="0.39" d="M106.827 215.179H229.98V338.371H106.827V215.179Z" fill="#FF6F80"/>
<path opacity="0.47" d="M104.796 339.442H231.688V310.941L209.76 285.542C208.244 283.783 206.126 282.655 203.821 282.378C201.516 282.101 199.191 282.696 197.302 284.046L177.119 298.466C176.62 298.817 176.018 298.992 175.409 298.962C174.8 298.933 174.217 298.701 173.755 298.304L144.739 273.379C141.659 270.741 137.73 269.305 133.676 269.334C129.622 269.364 125.715 270.858 122.674 273.541L104.833 289.355L104.796 339.442ZM227.95 335.704H108.534V290.988L125.116 276.282C127.48 274.201 130.515 273.042 133.664 273.019C136.814 272.996 139.865 274.111 142.259 276.158L171.288 301.145C172.385 302.089 173.767 302.638 175.212 302.703C176.658 302.769 178.084 302.347 179.261 301.506L199.37 287.087C200.503 286.277 201.898 285.919 203.281 286.085C204.665 286.251 205.936 286.929 206.845 287.985L227.863 312.324L227.95 335.704Z" fill="white"/>
<path opacity="0.47" d="M160.824 265.838C164.96 265.835 168.925 264.19 171.85 261.264C174.774 258.339 176.419 254.372 176.422 250.235C176.415 246.099 174.77 242.134 171.846 239.209C168.922 236.284 164.959 234.638 160.824 234.632C156.689 234.638 152.725 236.284 149.801 239.209C146.877 242.134 145.232 246.099 145.225 250.235C145.229 254.372 146.873 258.339 149.798 261.264C152.722 264.19 156.688 265.835 160.824 265.838ZM160.824 238.42C163.968 238.424 166.983 239.675 169.207 241.899C171.43 244.123 172.681 247.139 172.684 250.285C172.681 253.43 171.43 256.446 169.207 258.671C166.983 260.895 163.968 262.146 160.824 262.149C157.679 262.146 154.664 260.895 152.441 258.671C150.217 256.446 148.966 253.43 148.963 250.285C148.958 248.723 149.261 247.176 149.855 245.731C150.449 244.287 151.321 242.974 152.423 241.867C153.525 240.76 154.834 239.882 156.275 239.282C157.717 238.682 159.262 238.372 160.824 238.371V238.42Z" fill="white"/>
<path opacity="0.5" d="M242.802 281.451L317.748 309.54C321.846 311.076 323.923 315.644 322.388 319.744L294.307 394.713C292.771 398.813 288.205 400.891 284.107 399.355L209.16 371.265C205.062 369.729 202.985 365.161 204.521 361.062L232.602 286.092C234.137 281.993 238.704 279.915 242.802 281.451Z" fill="#DADEF1"/>
<path d="M249.071 278.597L324.018 306.687C328.115 308.223 330.193 312.791 328.657 316.89L300.576 391.86C299.041 395.959 294.474 398.037 290.376 396.501L215.43 368.411C211.332 366.876 209.255 362.307 210.79 358.208L238.871 283.238C240.406 279.139 244.973 277.061 249.071 278.597Z" fill="white"/>
<path d="M246.481 286.357L320.973 314.276L293.062 388.791L218.571 360.872L246.481 286.357Z" fill="#10C1D6"/>
<path opacity="0.47" d="M294.234 390.676L301.012 372.593L293.412 352.017C292.837 350.449 291.695 349.154 290.212 348.388C288.729 347.622 287.012 347.44 285.401 347.879L269.927 352.017C269.691 352.081 269.44 352.065 269.214 351.97C268.988 351.875 268.801 351.707 268.681 351.494L256.783 329.796C255.44 327.363 253.263 325.496 250.653 324.541C248.044 323.586 245.177 323.607 242.581 324.599L227.929 330.22L216.243 361.451L294.234 390.676ZM297.025 372.58L292.041 385.865L221.027 359.258L230.82 333.086L243.901 328.101C245.652 327.429 247.586 327.413 249.347 328.057C251.109 328.701 252.577 329.96 253.482 331.603L265.38 353.301C265.898 354.253 266.722 355.003 267.719 355.429C268.717 355.854 269.828 355.93 270.874 355.644L286.348 351.506C287.058 351.308 287.817 351.385 288.473 351.722C289.129 352.06 289.634 352.632 289.886 353.326L297.025 372.58Z" fill="white"/>
<path opacity="0.47" d="M271.173 330.531C273.36 330.532 275.496 329.866 277.294 328.621C279.093 327.376 280.469 325.612 281.24 323.565C282.24 320.903 282.146 317.954 280.979 315.362C279.812 312.77 277.666 310.745 275.01 309.731C272.342 308.734 269.387 308.836 266.794 310.016C264.201 311.196 262.183 313.357 261.181 316.025C260.185 318.692 260.287 321.646 261.467 324.238C262.647 326.83 264.807 328.847 267.473 329.846C268.655 330.297 269.908 330.529 271.173 330.531ZM271.173 312.785C272.024 312.781 272.869 312.933 273.665 313.233C275.402 313.885 276.811 315.2 277.581 316.889C278.352 318.578 278.422 320.503 277.776 322.244C277.122 323.983 275.805 325.391 274.115 326.162C272.424 326.933 270.498 327.003 268.756 326.356C267.018 325.702 265.61 324.384 264.842 322.693C264.073 321.001 264.007 319.074 264.657 317.333C265.161 316.004 266.056 314.859 267.224 314.05C268.391 313.24 269.777 312.803 271.198 312.797L271.173 312.785Z" fill="white"/>
</g>
<defs>
<clipPath id="clip0_795_4544">
<rect width="564" height="445" fill="white" transform="matrix(-1 0 0 1 564 0)"/>
</clipPath>
</defs>
</svg>
